<svg width="29" height="29" viewBox="0 0 29 29" fill="none" xmlns="http://www.w3.org/2000/svg">
<path d="M14.5002 0C22.4953 0 28.9998 6.50476 28.9998 14.5001C28.9998 22.4952 22.4953 29 14.5002 29C6.50499 29 0.000366211 22.4952 0.000366211 14.5001C0.000366211 6.50476 6.50499 0 14.5002 0ZM14.5002 27.0151C21.4009 27.0151 27.0149 21.4009 27.015 14.5001C27.015 7.59925 21.401 1.98507 14.5002 1.98493C7.59948 1.98507 1.98543 7.59925 1.98543 14.5002C1.98543 21.4008 7.59948 27.0151 14.5002 27.0151Z" fill="black"/>
<path d="M12.5529 8.2896C12.9404 7.90214 13.5689 7.90227 13.9563 8.2896C14.3441 8.67732 14.3441 9.30562 13.9562 9.69335L10.1425 13.5069L21.1863 13.508C21.7344 13.5081 22.1786 13.9523 22.1786 14.5007C22.1785 15.0488 21.7342 15.4929 21.1861 15.4929L10.142 15.4919L13.9566 19.3062C14.3442 19.6938 14.3442 20.3224 13.9566 20.7099C13.7627 20.9036 13.5088 21.0006 13.2547 21.0006C13.0008 21.0006 12.7468 20.9036 12.553 20.71L7.04427 15.2014C6.85808 15.0153 6.75354 14.763 6.75354 14.4997C6.75367 14.2363 6.85821 13.9841 7.0444 13.7977L12.5529 8.2896Z" fill="black"/>
</svg>

