<svg width="25" height="25" viewBox="0 0 25 25" fill="none" xmlns="http://www.w3.org/2000/svg">
<g clip-path="url(#clip0_15_369)">
<path d="M11.5397 19.2383H13.4603M17.3126 19.2383H19.2331M5.778 19.2383H7.69856M11.5397 13.4766H13.4603M17.3126 13.4766H19.2331M5.778 13.4766H7.69856M0.976585 8.65884H24.0345M18.2728 5.77798V0.976564M6.7383 5.77798V0.976564M4.82883 24.0234H20.1823C22.3098 24.0234 24.0345 22.2987 24.0345 20.1711V6.74941C24.0345 4.62188 22.3098 2.89712 20.1823 2.89712H4.82883C2.70129 2.89712 0.976585 4.62188 0.976585 6.74941V20.1711C0.976585 22.2987 2.70129 24.0234 4.82883 24.0234Z" stroke="black" stroke-width="1.5" stroke-miterlimit="10" stroke-linecap="round" stroke-linejoin="round"/>
</g>
<defs>
<clipPath id="clip0_15_369">
<rect width="25" height="25" fill="white"/>
</clipPath>
</defs>
</svg>
