<svg width="28" height="28" viewBox="0 0 28 28" fill="none" xmlns="http://www.w3.org/2000/svg">
<path d="M18.6875 10.6813L15.3219 14L18.6875 17.3188C18.7812 17.4065 18.8558 17.5124 18.9069 17.6302C18.9579 17.7479 18.9843 17.8748 18.9843 18.0031C18.9843 18.1314 18.9579 18.2584 18.9069 18.3761C18.8558 18.4938 18.7812 18.5998 18.6875 18.6875C18.5999 18.7744 18.496 18.8431 18.3818 18.8898C18.2676 18.9364 18.1453 18.9601 18.0219 18.9594C17.7759 18.9583 17.5402 18.8607 17.3656 18.6875L14 15.3219L10.6812 18.6875C10.5066 18.8607 10.2709 18.9583 10.025 18.9594C9.90162 18.9601 9.77931 18.9364 9.66509 18.8898C9.55086 18.8431 9.44697 18.7744 9.35937 18.6875C9.18476 18.5119 9.08676 18.2742 9.08676 18.0266C9.08676 17.7789 9.18476 17.5413 9.35937 17.3656L12.6781 14L9.35937 10.6813C9.20579 10.5019 9.12553 10.2712 9.13464 10.0353C9.14376 9.79932 9.24157 9.5755 9.40853 9.40854C9.5755 9.24158 9.79932 9.14377 10.0353 9.13465C10.2712 9.12554 10.5019 9.20579 10.6812 9.35938L14 12.6781L17.3187 9.35938C17.4055 9.26951 17.5092 9.19761 17.6238 9.14779C17.7384 9.09798 17.8616 9.07122 17.9866 9.06904C18.1115 9.06686 18.2356 9.08931 18.3519 9.13511C18.4681 9.1809 18.5742 9.24915 18.6641 9.33594C18.7539 9.42274 18.8258 9.52639 18.8756 9.64097C18.9255 9.75555 18.9522 9.87882 18.9544 10.0037C18.9566 10.1287 18.9341 10.2528 18.8883 10.369C18.8425 10.4853 18.7743 10.5914 18.6875 10.6813ZM23.2812 23.2813C21.4456 25.1167 19.107 26.3666 16.561 26.8729C14.015 27.3792 11.3761 27.1192 8.97792 26.1258C6.57971 25.1324 4.52995 23.4501 3.08781 21.2917C1.64568 19.1334 0.875946 16.5958 0.875946 14C0.875946 11.4042 1.64568 8.86665 3.08781 6.70829C4.52995 4.54992 6.57971 2.86765 8.97792 1.87422C11.3761 0.880776 14.015 0.620779 16.561 1.1271C19.107 1.63342 21.4456 2.88333 23.2812 4.71876C24.5002 5.93754 25.4671 7.38449 26.1267 8.97698C26.7864 10.5695 27.1259 12.2763 27.1259 14C27.1259 15.7237 26.7864 17.4305 26.1267 19.023C25.4671 20.6155 24.5002 22.0625 23.2812 23.2813ZM21.9594 6.04063C20.3845 4.4712 18.3799 3.40362 16.1986 2.9727C14.0174 2.54178 11.7574 2.76684 9.70404 3.61948C7.65064 4.47211 5.89594 5.91407 4.6615 7.76328C3.42706 9.61248 2.76825 11.786 2.76825 14.0094C2.76825 16.2328 3.42706 18.4063 4.6615 20.2555C5.89594 22.1047 7.65064 23.5467 9.70404 24.3993C11.7574 25.2519 14.0174 25.477 16.1986 25.0461C18.3799 24.6151 20.3845 23.5476 21.9594 21.9781C23.0082 20.933 23.8403 19.691 24.4081 18.3236C24.976 16.9561 25.2682 15.49 25.2682 14.0094C25.2682 12.5287 24.976 11.0626 24.4081 9.69517C23.8403 8.32771 23.0082 7.08579 21.9594 6.04063Z" fill="black"/>
</svg>
