<svg width="14" height="14" viewBox="0 0 14 14" fill="none" xmlns="http://www.w3.org/2000/svg">
<path fill-rule="evenodd" clip-rule="evenodd" d="M13.4167 2.33337C13.4167 1.36688 12.6332 0.583374 11.6667 0.583374H4.66668C3.70018 0.583374 2.91668 1.36688 2.91668 2.33337V2.91671H2.33334C1.36685 2.91671 0.583344 3.70021 0.583344 4.66671V11.6667C0.583344 12.6332 1.36685 13.4167 2.33334 13.4167H9.33334C10.2998 13.4167 11.0833 12.6332 11.0833 11.6667V11.0834H11.6667C12.6332 11.0834 13.4167 10.2999 13.4167 9.33337V2.33337ZM11.0833 9.91671H11.6667C11.9888 9.91671 12.25 9.65554 12.25 9.33337V2.33337C12.25 2.01121 11.9888 1.75004 11.6667 1.75004H4.66668C4.34451 1.75004 4.08334 2.01121 4.08334 2.33337V2.91671H9.33334C10.2998 2.91671 11.0833 3.70021 11.0833 4.66671V9.91671ZM9.33334 4.08337C9.65551 4.08337 9.91668 4.34454 9.91668 4.66671V11.6667C9.91668 11.9889 9.65551 12.25 9.33334 12.25H2.33334C2.01118 12.25 1.75001 11.9889 1.75001 11.6667V4.66671C1.75001 4.34454 2.01118 4.08337 2.33334 4.08337H9.33334Z" fill="#0F0F0F"/>
</svg>
