<svg width="20" height="20" viewBox="0 0 20 20" fill="none" xmlns="http://www.w3.org/2000/svg">
<path fill-rule="evenodd" clip-rule="evenodd" d="M6.67191 0.555518C6.67194 0.40839 6.73038 0.267293 6.83439 0.163232C6.9384 0.0591711 7.07947 0.000660176 7.2266 0.000556641L12.7731 0.000244141C12.9203 0.000585311 13.0613 0.0592582 13.1653 0.163403C13.2693 0.267547 13.3277 0.408667 13.3278 0.55583V1.92759H6.67191V0.555518ZM15.7915 19.2056C15.7773 19.4219 15.681 19.6246 15.5223 19.7723C15.3636 19.9199 15.1545 20.0013 14.9377 19.9998H4.99824C4.78154 19.9992 4.57309 19.9166 4.41474 19.7687C4.25639 19.6208 4.15987 19.4184 4.14457 19.2023L3.29402 6.76017H16.6993L15.7917 19.2055L15.7915 19.2056ZM18.0012 5.63329H1.9989V4.34423C1.99914 4.00234 2.13504 3.67453 2.37676 3.43275C2.61849 3.19098 2.94627 3.05501 3.28816 3.0547L16.7118 3.05427C17.0536 3.0548 17.3813 3.19088 17.623 3.43268C17.8646 3.67448 18.0005 4.00226 18.0008 4.34411V5.63317L18.0012 5.63329ZM7.42343 17.0337C7.42343 17.1077 7.438 17.181 7.46632 17.2493C7.49463 17.3177 7.53612 17.3798 7.58844 17.4321C7.64075 17.4844 7.70285 17.5259 7.7712 17.5542C7.83955 17.5825 7.91281 17.5971 7.98679 17.5971C8.06077 17.5971 8.13403 17.5825 8.20238 17.5542C8.27073 17.5259 8.33283 17.4844 8.38515 17.4321C8.43746 17.3798 8.47896 17.3177 8.50727 17.2493C8.53558 17.181 8.55015 17.1077 8.55015 17.0337V9.13345C8.54897 8.98487 8.48913 8.84278 8.38367 8.73812C8.2782 8.63346 8.13566 8.57471 7.98708 8.57466C7.8385 8.57461 7.69592 8.63326 7.59039 8.73785C7.48485 8.84243 7.42492 8.98448 7.42363 9.13306V17.0337H7.42343ZM11.443 17.0337C11.443 17.1832 11.5023 17.3265 11.608 17.4321C11.7137 17.5378 11.857 17.5972 12.0064 17.5972C12.1558 17.5972 12.2991 17.5378 12.4048 17.4321C12.5105 17.3265 12.5698 17.1832 12.5698 17.0337V9.13345C12.5687 8.98485 12.5088 8.84274 12.4033 8.73807C12.2979 8.63339 12.1553 8.57463 12.0067 8.57458C11.8581 8.57453 11.7155 8.63319 11.6099 8.73779C11.5044 8.84239 11.4444 8.98446 11.4432 9.13306L11.443 17.0337Z" fill="#FC0005"/>
</svg>
