<svg width="22" height="22" viewBox="0 0 22 22" fill="none" xmlns="http://www.w3.org/2000/svg">
<g clip-path="url(#clip0_35_384)">
<path d="M17.9063 4.77083H8.42711C7.93308 4.71342 7.43248 4.7685 6.96275 4.93195C6.49303 5.0954 6.06636 5.36297 5.71468 5.71465C5.363 6.06633 5.09543 6.493 4.93198 6.96272C4.76854 7.43244 4.71345 7.93305 4.77086 8.42708V17.9062C4.71345 18.4003 4.76854 18.9009 4.93198 19.3706C5.09543 19.8403 5.363 20.267 5.71468 20.6187C6.06636 20.9703 6.49303 21.2379 6.96275 21.4014C7.43248 21.5648 7.93308 21.6199 8.42711 21.5625H17.9063C18.4003 21.6199 18.9009 21.5648 19.3706 21.4014C19.8404 21.2379 20.267 20.9703 20.6187 20.6187C20.9704 20.267 21.238 19.8403 21.4014 19.3706C21.5648 18.9009 21.6199 18.4003 21.5625 17.9062V8.42708C21.6199 7.93305 21.5648 7.43244 21.4014 6.96272C21.238 6.493 20.9704 6.06633 20.6187 5.71465C20.267 5.36297 19.8404 5.0954 19.3706 4.93195C18.9009 4.7685 18.4003 4.71342 17.9063 4.77083ZM19.9375 17.9062C19.9375 19.3492 19.3493 19.9375 17.9063 19.9375H8.42711C6.98411 19.9375 6.39586 19.3492 6.39586 17.9062V8.42708C6.39586 6.98408 6.98411 6.39583 8.42711 6.39583H17.9063C19.3493 6.39583 19.9375 6.98408 19.9375 8.42708V17.9062ZM2.06252 4.08833V13.5783C2.06252 14.8783 2.58577 15.1957 2.75802 15.3008C2.93359 15.4173 3.05713 15.5973 3.10265 15.803C3.14816 16.0087 3.11211 16.2241 3.00206 16.4037C2.89202 16.5834 2.71658 16.7134 2.51265 16.7663C2.30872 16.8192 2.09221 16.791 1.90869 16.6875C1.40647 16.3495 1.00472 15.8823 0.745803 15.3351C0.486885 14.7879 0.380384 14.181 0.437524 13.5783V4.08833C0.38615 3.59627 0.445273 3.09895 0.61058 2.63265C0.775886 2.16635 1.04321 1.74283 1.39304 1.39301C1.74286 1.04318 2.16638 0.775856 2.63268 0.610549C3.09898 0.445243 3.5963 0.38612 4.08836 0.437494H13.5784C14.1811 0.379646 14.7883 0.485831 15.3356 0.74481C15.8829 1.00379 16.35 1.40593 16.6875 1.90866C16.7433 1.99964 16.7806 2.10071 16.7973 2.20611C16.814 2.3115 16.8098 2.41915 16.7849 2.52292C16.76 2.62669 16.7149 2.72453 16.6522 2.81087C16.5895 2.89721 16.5104 2.97035 16.4194 3.02612C16.3284 3.08189 16.2273 3.11919 16.122 3.1359C16.0166 3.1526 15.9089 3.14839 15.8051 3.12349C15.7014 3.09859 15.6035 3.0535 15.5172 2.99079C15.4309 2.92808 15.3577 2.84897 15.3019 2.75799C15.1936 2.58574 14.8762 2.06249 13.5784 2.06249H4.08836C2.64969 2.06249 2.06252 2.64966 2.06252 4.08833Z" fill="black"/>
</g>
<defs>
<clipPath id="clip0_35_384">
<rect width="22" height="22" fill="white"/>
</clipPath>
</defs>
</svg>
