<svg width="35" height="35" viewBox="0 0 35 35" fill="none" xmlns="http://www.w3.org/2000/svg">
<path d="M22.225 32.4771H22.0355C15.5605 32.4771 12.4396 29.925 11.9 24.2083C11.8417 23.6104 12.2792 23.0708 12.8917 23.0125C13.4896 22.9542 14.0292 23.4063 14.0875 24.0042C14.5105 28.5833 16.6688 30.2896 22.05 30.2896H22.2396C28.175 30.2896 30.275 28.1896 30.275 22.2542V12.7458C30.275 6.81042 28.175 4.71042 22.2396 4.71042H22.05C16.6396 4.71042 14.4813 6.44584 14.0875 11.1125C14.0146 11.7104 13.5188 12.1625 12.8917 12.1042C12.2792 12.0604 11.8417 11.5208 11.8855 10.9229C12.3813 5.11875 15.5167 2.52292 22.0355 2.52292H22.225C29.3855 2.52292 32.448 5.58542 32.448 12.7458V22.2542C32.448 29.4146 29.3855 32.4771 22.225 32.4771Z" fill="black"/>
<path d="M21.7001 18.5938H2.91675C2.31883 18.5938 1.823 18.0979 1.823 17.5C1.823 16.9021 2.31883 16.4062 2.91675 16.4062H21.7001C22.298 16.4062 22.7938 16.9021 22.7938 17.5C22.7938 18.0979 22.3126 18.5938 21.7001 18.5938Z" fill="black"/>
<path d="M18.4479 23.4792C18.1708 23.4792 17.8937 23.3771 17.675 23.1583C17.2521 22.7354 17.2521 22.0354 17.675 21.6125L21.7875 17.5L17.675 13.3875C17.2521 12.9646 17.2521 12.2646 17.675 11.8417C18.0979 11.4188 18.7979 11.4188 19.2208 11.8417L24.1062 16.7271C24.5291 17.15 24.5291 17.85 24.1062 18.2729L19.2208 23.1583C19.0021 23.3771 18.725 23.4792 18.4479 23.4792Z" fill="black"/>
</svg>

