<svg width="24" height="24" viewBox="0 0 24 24" fill="none" xmlns="http://www.w3.org/2000/svg">
<path d="M12.0192 20.53C9.68923 20.53 7.35923 20.16 5.14923 19.42C4.30923 19.13 3.66923 18.54 3.38923 17.77C3.09923 17 3.19923 16.15 3.65923 15.39L4.80923 13.48C5.04923 13.08 5.26923 12.28 5.26923 11.81V8.92001C5.26923 5.20001 8.29923 2.17001 12.0192 2.17001C15.7392 2.17001 18.7692 5.20001 18.7692 8.92001V11.81C18.7692 12.27 18.9892 13.08 19.2292 13.49L20.3692 15.39C20.7992 16.11 20.8792 16.98 20.5892 17.77C20.2992 18.56 19.6692 19.16 18.8792 19.42C16.6792 20.16 14.3492 20.53 12.0192 20.53ZM12.0192 3.67001C9.12923 3.67001 6.76923 6.02001 6.76923 8.92001V11.81C6.76923 12.54 6.46923 13.62 6.09923 14.25L4.94923 16.16C4.72923 16.53 4.66923 16.92 4.79923 17.25C4.91923 17.59 5.21923 17.85 5.62923 17.99C9.80923 19.39 14.2392 19.39 18.4192 17.99C18.7792 17.87 19.0592 17.6 19.1892 17.24C19.3192 16.88 19.2892 16.49 19.0892 16.16L17.9392 14.25C17.5592 13.6 17.2692 12.53 17.2692 11.8V8.92001C17.2692 6.02001 14.9192 3.67001 12.0192 3.67001Z" fill="#262626"/>
<path d="M13.8803 3.94002C13.8103 3.94002 13.7403 3.93002 13.6703 3.91002C13.3803 3.83002 13.1003 3.77002 12.8303 3.73002C11.9803 3.62002 11.1603 3.68002 10.3903 3.91002C10.1103 4.00002 9.81027 3.91002 9.62027 3.70002C9.43027 3.49002 9.37027 3.19002 9.48027 2.92002C9.89027 1.87002 10.8903 1.18002 12.0303 1.18002C13.1703 1.18002 14.1703 1.86002 14.5803 2.92002C14.6803 3.19002 14.6303 3.49002 14.4403 3.70002C14.2903 3.86002 14.0803 3.94002 13.8803 3.94002Z" fill="#262626"/>
<path d="M12.0199 22.81C11.0299 22.81 10.0699 22.41 9.36987 21.71C8.66987 21.01 8.26987 20.05 8.26987 19.06H9.76987C9.76987 19.65 10.0099 20.23 10.4299 20.65C10.8499 21.07 11.4299 21.31 12.0199 21.31C13.2599 21.31 14.2699 20.3 14.2699 19.06H15.7699C15.7699 21.13 14.0899 22.81 12.0199 22.81Z" fill="#262626"/>
</svg>

